<svg xmlns:dc="http://purl.org/dc/elements/1.1/" xmlns:cc="http://creativecommons.org/ns#" xmlns:rdf="http://www.w3.org/1999/02/22-rdf-syntax-ns#" xmlns:svg="http://www.w3.org/2000/svg" xmlns="http://www.w3.org/2000/svg" xmlns:sodipodi="http://sodipodi.sourceforge.net/DTD/sodipodi-0.dtd" xmlns:inkscape="http://www.inkscape.org/namespaces/inkscape" version="1.1" x="0px" y="0px" viewBox="0 0 100 125"><g transform="translate(0,-952.36218)"><path style="font-size:medium;font-style:normal;font-variant:normal;font-weight:normal;font-stretch:normal;text-indent:0;text-align:start;text-decoration:none;line-height:normal;letter-spacing:normal;word-spacing:normal;text-transform:none;direction:ltr;block-progression:tb;writing-mode:lr-tb;text-anchor:start;baseline-shift:baseline;opacity:1;color:#000000;fill:#000000;fill-opacity:1;stroke:none;stroke-width:4.00000095000000040;marker:none;visibility:visible;display:inline;overflow:visible;enable-background:accumulate;font-family:Sans;-inkscape-font-specification:Sans" d="M 12.78125 10.96875 C 12.023978 11.04245 11.342183 11.59335 11.09375 12.3125 C 10.845317 13.03165 11.043438 13.88084 11.59375 14.40625 L 22.6875 25.5 L 18.59375 29.59375 A 2.0002005 2.0002005 0 0 0 18 31 L 18 50 A 2.0002005 2.0002005 0 0 0 18.59375 51.40625 L 55.59375 88.40625 A 2.0002005 2.0002005 0 0 0 58.40625 88.40625 L 88.40625 58.40625 A 2.0002005 2.0002005 0 0 0 88.40625 55.59375 L 51.40625 18.59375 A 2.0002005 2.0002005 0 0 0 50 18 L 31 18 A 2.0002005 2.0002005 0 0 0 30.8125 18 A 2.0002005 2.0002005 0 0 0 29.59375 18.59375 L 25.5 22.6875 L 14.40625 11.5625 C 13.989705 11.13571 13.374826 10.91104 12.78125 10.96875 z M 31.8125 22 L 49.1875 22 L 84.1875 57 L 57 84.1875 L 22 49.1875 L 22 31.8125 L 25.5 28.3125 L 30.40625 33.21875 C 29.526361 34.608081 29 36.244246 29 38 C 29 42.94687 33.053126 47 38 47 C 42.946874 47 47 42.94687 47 38 C 47 33.05313 42.946874 29 38 29 C 36.249851 29 34.605259 29.500273 33.21875 30.375 L 28.3125 25.5 L 31.8125 22 z M 38 33 C 40.785113 33 43 35.21489 43 38 C 43 40.78511 40.785113 43 38 43 C 35.214887 43 33 40.78511 33 38 C 33 35.21489 35.214887 33 38 33 z " transform="translate(0,952.36218)"/></g><text x="0" y="115" fill="#000000" font-size="5px" font-weight="bold" font-family="'Helvetica Neue', Helvetica, Arial-Unicode, Arial, Sans-serif">Created by artworkbean</text><text x="0" y="120" fill="#000000" font-size="5px" font-weight="bold" font-family="'Helvetica Neue', Helvetica, Arial-Unicode, Arial, Sans-serif">from the Noun Project</text></svg>