<svg xmlns="http://www.w3.org/2000/svg" xmlns:xlink="http://www.w3.org/1999/xlink" version="1.1" x="0px" y="0px" viewBox="0 0 12 15" enable-background="new 0 0 12 12" xml:space="preserve"><g><path fill="#000000" d="M11.853773,11.14891L7.749838,7.036978c0.583001-0.741977,0.945978-1.664979,0.945978-2.680957   c0-2.401951-1.949955-4.355907-4.347908-4.355907S0,1.95407,0,4.356021c0,2.401955,1.949955,4.356934,4.347908,4.356934   c1.024973,0,1.955951-0.372001,2.699956-0.969002l4.101905,4.109932c0.097001,0.097,0.224999,0.146002,0.351998,0.146002   c0.127007,0,0.255006-0.049002,0.352006-0.146002C12.048742,11.658884,12.048742,11.343885,11.853773,11.14891 M4.347908,7.715953   c-1.84798,0-3.351935-1.506953-3.351935-3.359932c0-1.850952,1.503955-3.357931,3.351935-3.357931   c1.84795,0,3.351927,1.50698,3.351927,3.357931C7.699835,6.209,6.195858,7.715953,4.347908,7.715953"/></g><text x="0" y="27" fill="#000000" font-size="5px" font-weight="bold" font-family="'Helvetica Neue', Helvetica, Arial-Unicode, Arial, Sans-serif">Created by Gautam Arora</text><text x="0" y="32" fill="#000000" font-size="5px" font-weight="bold" font-family="'Helvetica Neue', Helvetica, Arial-Unicode, Arial, Sans-serif">from the Noun Project</text></svg>