<?xml version="1.0" encoding="utf-8"?>
<!-- Generator: Adobe Illustrator 15.0.0, SVG Export Plug-In . SVG Version: 6.00 Build 0)  -->
<!DOCTYPE svg PUBLIC "-//W3C//DTD SVG 1.1//EN" "http://www.w3.org/Graphics/SVG/1.1/DTD/svg11.dtd">
<svg version="1.1" id="Capa_1" xmlns="http://www.w3.org/2000/svg" xmlns:xlink="http://www.w3.org/1999/xlink" x="0px" y="0px"
	 width="342.444px" height="358.141px" viewBox="0 0 342.444 358.141" enable-background="new 0 0 342.444 358.141"
	 xml:space="preserve">
<g>
	<path d="M171.387,4.889c-18.553,0-33.64,14.549-34.711,32.831c-34.974,8.01-65.548,27.893-87.173,55.123
		c-1.2,1.6-0.929,4.138,0.533,5.338c1.604,1.2,4.139,0.934,5.339-0.533c20.292-25.626,48.86-44.308,81.696-52.185
		c2.81,16.415,17.091,28.964,34.311,28.964c17.22,0,31.502-12.544,34.307-28.964c32.841,7.877,61.409,26.559,81.568,52.185
		c1.333,1.472,3.871,1.733,5.338,0.533c1.601-1.2,1.872-3.738,0.667-5.338c-21.625-27.227-52.194-46.979-87.173-54.985
		C205.023,19.571,189.941,4.889,171.387,4.889L171.387,4.889z M171.387,12.228c15.082,0,27.235,12.41,27.235,27.492
		s-12.153,27.226-27.235,27.226c-15.215,0-27.235-12.144-27.235-27.226S156.167,12.228,171.387,12.228L171.387,12.228z
		 M311.821,129.279c-2.271,0.271-4.005,3.076-3.071,5.21c6.672,16.948,10.415,35.369,10.415,54.718
		c0,14.683-2.271,28.831-6.139,42.174c-15.62-5.872-33.641,0.267-42.322,15.082c-8.544,14.949-4.938,33.636,7.877,44.312
		c-22.297,23.492-52.199,39.774-85.835,44.575c-2.005,0.271-3.472,2.404-3.205,4.271c0.267,2,2.271,3.601,4.267,3.333
		c35.912-5.205,67.687-22.691,91.312-47.917c16.287,8.276,36.584,2.404,45.927-13.749c9.211-16.016,4.139-36.569-11.21-46.575
		c4.405-14.415,6.811-29.634,6.811-45.516c0-20.283-3.872-39.637-10.949-57.386C315.158,130.217,313.425,129.145,311.821,129.279
		L311.821,129.279z M30.015,129.416c-1.338,0.129-2.538,1.2-3.076,2.4c-6.943,17.754-10.943,37.103-10.943,57.385
		c0,15.754,2.528,31.098,6.938,45.517c-15.487,10.011-20.554,30.56-11.216,46.575c9.22,16.153,29.641,22.025,46.061,13.615
		c23.497,25.354,55.399,42.841,91.178,48.046c2,0.268,4.001-1.333,4.268-3.333c0.271-1.872-1.2-4.005-3.205-4.271
		c-33.636-4.806-63.676-21.088-85.973-44.713c12.811-10.544,16.554-29.23,7.872-44.175c-8.539-14.815-26.564-20.954-42.18-15.082
		c-4.01-13.348-6.139-27.63-6.139-42.174c0-19.349,3.601-37.77,10.277-54.585c0.929-2.267-0.934-5.2-3.472-5.2
		C30.277,129.416,30.149,129.416,30.015,129.416L30.015,129.416z M41.093,236.581c9.748-0.129,19.226,4.672,24.431,13.749
		c7.472,13.082,3.071,29.631-10.016,37.103c-13.082,7.61-29.773,3.205-37.384-9.872c-7.472-13.082-3.071-29.764,10.021-37.236
		C32.287,237.919,36.687,236.719,41.093,236.581L41.093,236.581z M301.543,236.581c4.405,0.134,8.943,1.333,12.949,3.738
		c13.086,7.473,17.62,24.154,10.015,37.236c-7.61,13.077-24.159,17.615-37.241,10.01c-13.215-7.472-17.491-24.153-10.015-37.235
		C282.451,241.258,291.929,236.319,301.543,236.581L301.543,236.581z"/>
</g>
<text transform="matrix(1 0 0 1 70.4285 196.9236)"><tspan x="0" y="0" font-family="'Lato-Black'" font-size="67.783">nak</tspan><tspan x="114.89" y="0" font-family="'Lato-Light'" font-size="67.783">DS</tspan></text>
</svg>
